<?xml version="1.0" encoding="UTF-8"?>
<svg xmlns="http://www.w3.org/2000/svg" xmlns:xlink="http://www.w3.org/1999/xlink" width="40px" height="40px" viewBox="0 0 40 40" version="1.1">
<g id="surface1">
<path style=" stroke:none;fill-rule:evenodd;fill:rgb(100%,100%,100%);fill-opacity:1;" d="M 19.285156 10 C 16.882812 10 14.535156 10.710938 12.539062 12.046875 C 10.542969 13.378906 8.984375 15.277344 8.066406 17.496094 C 7.148438 19.714844 6.90625 22.15625 7.375 24.511719 C 7.84375 26.867188 9 29.03125 10.699219 30.730469 C 12.398438 32.425781 14.5625 33.582031 16.917969 34.050781 C 19.273438 34.519531 21.714844 34.28125 23.933594 33.363281 C 26.152344 32.441406 28.046875 30.886719 29.382812 28.890625 C 30.449219 27.289062 31.121094 25.464844 31.34375 23.566406 C 31.4375 22.785156 32.066406 22.144531 32.855469 22.144531 L 35.714844 22.144531 C 36.503906 22.144531 37.148438 22.785156 37.085938 23.570312 C 36.84375 26.597656 35.832031 29.523438 34.132812 32.0625 C 32.171875 35 29.382812 37.289062 26.121094 38.640625 C 22.855469 39.992188 19.265625 40.347656 15.800781 39.65625 C 12.339844 38.96875 9.15625 37.265625 6.660156 34.769531 C 4.160156 32.273438 2.460938 29.089844 1.773438 25.625 C 1.082031 22.164062 1.4375 18.570312 2.789062 15.308594 C 4.140625 12.046875 6.429688 9.257812 9.363281 7.296875 C 12.300781 5.332031 15.753906 4.285156 19.285156 4.285156 Z M 19.285156 10 "/>
<path style=" stroke:none;fill-rule:nonzero;fill:rgb(100%,100%,100%);fill-opacity:1;" d="M 27.660156 5.980469 C 28.457031 6.550781 28.457031 7.734375 27.660156 8.304688 L 21.542969 12.671875 C 20.597656 13.347656 19.285156 12.671875 19.285156 11.507812 L 19.285156 2.777344 C 19.285156 1.613281 20.597656 0.9375 21.542969 1.613281 Z M 27.660156 5.980469 "/>
</g>
</svg>
