<?xml version="1.0" encoding="UTF-8"?>
<svg xmlns="http://www.w3.org/2000/svg" xmlns:xlink="http://www.w3.org/1999/xlink" width="40px" height="40px" viewBox="0 0 40 40" version="1.1">
<g id="surface1">
<path style=" stroke:none;fill-rule:nonzero;fill:rgb(100%,100%,100%);fill-opacity:1;" d="M 17.5625 37.5625 C 18.460938 38.460938 20 37.824219 20 36.550781 L 20 3.449219 C 20 2.175781 18.460938 1.539062 17.5625 2.4375 L 8.570312 11.429688 L 1.429688 11.429688 C 0.640625 11.429688 0 12.066406 0 12.855469 L 0 27.144531 C 0 27.933594 0.640625 28.570312 1.429688 28.570312 L 8.570312 28.570312 Z M 17.5625 37.5625 "/>
<path style=" stroke:none;fill-rule:nonzero;fill:rgb(100%,100%,100%);fill-opacity:1;" d="M 29.199219 15.453125 C 28.640625 14.894531 27.738281 14.894531 27.179688 15.453125 L 26.167969 16.464844 C 25.609375 17.023438 25.609375 17.925781 26.167969 18.484375 L 27.683594 20 L 26.167969 21.515625 C 25.609375 22.074219 25.609375 22.976562 26.167969 23.535156 L 27.179688 24.546875 C 27.738281 25.105469 28.640625 25.105469 29.199219 24.546875 L 30.714844 23.03125 L 32.230469 24.546875 C 32.785156 25.101562 33.691406 25.101562 34.25 24.546875 L 35.257812 23.535156 C 35.816406 22.976562 35.816406 22.074219 35.257812 21.515625 L 33.746094 20 L 35.261719 18.484375 C 35.816406 17.925781 35.816406 17.023438 35.261719 16.464844 L 34.25 15.453125 C 33.691406 14.898438 32.789062 14.898438 32.230469 15.453125 L 30.714844 16.96875 Z M 29.199219 15.453125 "/>
</g>
</svg>
