<?xml version="1.0" encoding="UTF-8"?>
<svg xmlns="http://www.w3.org/2000/svg" xmlns:xlink="http://www.w3.org/1999/xlink" width="40px" height="40px" viewBox="0 0 40 40" version="1.1">
<g id="surface1">
<path style=" stroke:none;fill-rule:nonzero;fill:rgb(100%,100%,100%);fill-opacity:1;" d="M 17.5625 37.4375 C 18.460938 38.332031 20 37.699219 20 36.4375 L 20 3.5625 C 20 2.300781 18.460938 1.667969 17.5625 2.5625 L 8.570312 11.488281 L 1.429688 11.488281 C 0.640625 11.488281 0 12.125 0 12.90625 L 0 27.09375 C 0 27.875 0.640625 28.511719 1.429688 28.511719 L 8.570312 28.511719 Z M 17.5625 37.4375 "/>
<path style=" stroke:none;fill-rule:evenodd;fill:rgb(100%,100%,100%);fill-opacity:1;" d="M 23.605469 18.101562 C 23.480469 17.828125 23.339844 17.558594 23.171875 17.304688 C 22.738281 16.632812 22.71875 15.742188 23.3125 15.1875 L 23.835938 14.695312 C 24.429688 14.140625 25.398438 14.136719 25.898438 14.765625 C 26.378906 15.378906 26.777344 16.042969 27.089844 16.75 C 27.597656 17.894531 27.855469 19.117188 27.855469 20.355469 C 27.855469 21.59375 27.597656 22.820312 27.089844 23.964844 C 26.777344 24.671875 26.378906 25.335938 25.898438 25.949219 C 25.398438 26.578125 24.429688 26.574219 23.835938 26.019531 L 23.3125 25.527344 C 22.71875 24.972656 22.738281 24.078125 23.171875 23.410156 C 23.339844 23.152344 23.480469 22.886719 23.605469 22.613281 C 23.921875 21.898438 24.082031 21.132812 24.082031 20.355469 C 24.082031 19.582031 23.921875 18.816406 23.605469 18.101562 Z M 23.605469 18.101562 "/>
</g>
</svg>
