<?xml version="1.0" encoding="UTF-8"?>
<svg xmlns="http://www.w3.org/2000/svg" xmlns:xlink="http://www.w3.org/1999/xlink" width="40px" height="40px" viewBox="0 0 40 40" version="1.1">
<g id="surface1">
<path style=" stroke:none;fill-rule:nonzero;fill:rgb(100%,100%,100%);fill-opacity:1;" d="M 17.5625 37.4375 C 18.460938 38.332031 20 37.699219 20 36.4375 L 20 3.5625 C 20 2.300781 18.460938 1.667969 17.5625 2.5625 L 8.570312 11.488281 L 1.429688 11.488281 C 0.640625 11.488281 0 12.125 0 12.90625 L 0 27.09375 C 0 27.875 0.640625 28.511719 1.429688 28.511719 L 8.570312 28.511719 Z M 17.5625 37.4375 "/>
<path style=" stroke:none;fill-rule:evenodd;fill:rgb(100%,100%,100%);fill-opacity:1;" d="M 23.605469 18.101562 C 23.480469 17.828125 23.339844 17.558594 23.171875 17.304688 C 22.738281 16.632812 22.71875 15.742188 23.3125 15.1875 L 23.835938 14.695312 C 24.429688 14.140625 25.398438 14.136719 25.898438 14.765625 C 26.378906 15.378906 26.777344 16.042969 27.089844 16.75 C 27.597656 17.894531 27.855469 19.117188 27.855469 20.355469 C 27.855469 21.59375 27.597656 22.820312 27.089844 23.964844 C 26.777344 24.671875 26.378906 25.335938 25.898438 25.949219 C 25.398438 26.578125 24.429688 26.574219 23.835938 26.019531 L 23.3125 25.527344 C 22.71875 24.972656 22.738281 24.078125 23.171875 23.410156 C 23.339844 23.152344 23.480469 22.886719 23.605469 22.613281 C 23.921875 21.898438 24.082031 21.132812 24.082031 20.355469 C 24.082031 19.582031 23.921875 18.816406 23.605469 18.101562 Z M 23.605469 18.101562 "/>
<path style=" stroke:none;fill-rule:evenodd;fill:rgb(100%,100%,100%);fill-opacity:1;" d="M 29.945312 16.84375 C 29.65625 16.183594 29.289062 15.558594 28.851562 14.980469 C 28.359375 14.328125 28.351562 13.394531 28.941406 12.828125 L 29.421875 12.371094 C 29.976562 11.84375 30.851562 11.835938 31.34375 12.417969 C 32.140625 13.359375 32.792969 14.40625 33.277344 15.523438 C 33.941406 17.058594 34.285156 18.699219 34.285156 20.355469 C 34.285156 22.015625 33.941406 23.65625 33.277344 25.1875 C 32.792969 26.308594 32.140625 27.355469 31.34375 28.292969 C 30.851562 28.875 29.976562 28.871094 29.421875 28.34375 L 28.941406 27.882812 C 28.351562 27.320312 28.359375 26.386719 28.851562 25.734375 C 29.289062 25.15625 29.65625 24.53125 29.945312 23.871094 C 30.425781 22.757812 30.675781 21.5625 30.675781 20.355469 C 30.675781 19.152344 30.425781 17.957031 29.945312 16.84375 Z M 29.945312 16.84375 "/>
</g>
</svg>
